<svg xmlns="http://www.w3.org/2000/svg" xmlns:xlink="http://www.w3.org/1999/xlink" width="500" zoomAndPan="magnify" viewBox="0 0 375 374.999991" height="500" preserveAspectRatio="xMidYMid meet" version="1.0"><defs><clipPath id="966556e2c2"><path d="M 0 0 L 374.972656 0 L 374.972656 374.972656 L 0 374.972656 Z M 0 0 " clip-rule="nonzero"/></clipPath><clipPath id="646e461c80"><path d="M 187.484375 0 C 83.941406 0 0 83.941406 0 187.484375 C 0 291.03125 83.941406 374.972656 187.484375 374.972656 C 291.03125 374.972656 374.972656 291.03125 374.972656 187.484375 C 374.972656 83.941406 291.03125 0 187.484375 0 Z M 187.484375 0 " clip-rule="nonzero"/></clipPath><clipPath id="06c2b8d68e"><path d="M 89.09375 98.964844 L 353.632812 98.964844 L 353.632812 363.507812 L 89.09375 363.507812 Z M 89.09375 98.964844 " clip-rule="nonzero"/></clipPath><clipPath id="33d7da4c2d"><path d="M 221.363281 98.964844 C 148.3125 98.964844 89.09375 158.183594 89.09375 231.234375 C 89.09375 304.285156 148.3125 363.507812 221.363281 363.507812 C 294.414062 363.507812 353.632812 304.285156 353.632812 231.234375 C 353.632812 158.183594 294.414062 98.964844 221.363281 98.964844 Z M 221.363281 98.964844 " clip-rule="nonzero"/></clipPath><clipPath id="b843b88f8f"><rect x="0" width="375" y="0" height="375"/></clipPath></defs><g transform="matrix(1, 0, 0, 1, 0, 0)"><g clip-path="url(#b843b88f8f)"><g clip-path="url(#966556e2c2)"><g clip-path="url(#646e461c80)"><path stroke-linecap="butt" transform="matrix(3.644926, 0, 0, 3.644926, 0.0000045, -0.000000000000025899)" fill="none" stroke-linejoin="miter" d="M 51.437088 0.000000000000007105 C 23.02966 0.000000000000007105 -0.00000123459 23.029661 -0.00000123459 51.437089 C -0.00000123459 79.845589 23.02966 102.87525 51.437088 102.87525 C 79.845588 102.87525 102.875249 79.845589 102.875249 51.437089 C 102.875249 23.029661 79.845588 0.000000000000007105 51.437088 0.000000000000007105 Z M 51.437088 0.000000000000007105 " stroke="#ffffff" stroke-width="1.646124" stroke-opacity="1" stroke-miterlimit="4"/></g></g><g clip-path="url(#06c2b8d68e)"><g clip-path="url(#33d7da4c2d)"><path stroke-linecap="butt" transform="matrix(3.644926, 0, 0, 3.644926, 89.091942, 98.964493)" fill="none" stroke-linejoin="miter" d="M 36.289172 0.0000963116 C 16.247397 0.0000963116 0.000496073 16.246998 0.000496073 36.288772 C 0.000496073 56.330546 16.247397 72.578519 36.289172 72.578519 C 56.330946 72.578519 72.577847 56.330546 72.577847 36.288772 C 72.577847 16.246998 56.330946 0.0000963116 36.289172 0.0000963116 Z M 36.289172 0.0000963116 " stroke="#ffffff" stroke-width="1.646124" stroke-opacity="1" stroke-miterlimit="4"/></g></g></g></g></svg>